<svg xmlns="http://www.w3.org/2000/svg" viewBox="0 0 64 64" role="img" aria-label="CarePath AI icon">
  <defs>
    <linearGradient id="bg" x1="0" y1="0" x2="1" y2="1">
      <stop offset="0%" stop-color="#3B82F6" />
      <stop offset="100%" stop-color="#14B8A6" />
    </linearGradient>
  </defs>
  <rect x="4" y="4" width="56" height="56" rx="14" fill="url(#bg)" />
  <path
    d="M20 33c0-7 5-12 12-12 4 0 7 1 10 4l-4 4c-2-2-4-3-6-3-4 0-7 3-7 7s3 7 7 7c3 0 5-1 6-3l4 4c-3 3-6 4-10 4-7 0-12-5-12-12z"
    fill="#ffffff"
  />
  <circle cx="46.5" cy="20.5" r="3.5" fill="#ffffff" opacity="0.95" />
</svg>
